<svg width="512" height="228" viewBox="0 0 512 228" fill="none" xmlns="http://www.w3.org/2000/svg">
<path d="M107.658 0V167.647H83.7337V162.857H80.1451C73.2072 166.45 65.5516 168.845 57.1782 168.845C29.1872 168.845 0 143.218 0 107.773C0 72.3277 29.1872 46.7017 57.1782 46.7017C65.7908 46.7017 73.6857 49.0966 80.6236 52.9286H83.7337V0H107.658ZM83.7337 140.105V75.4412C77.7528 70.8908 70.0971 68.2563 62.2022 68.2563C42.1061 68.2563 25.1201 85.2605 25.1201 107.773C25.1201 130.286 42.1061 147.29 62.2022 147.29C70.0971 147.29 77.7528 144.655 83.7337 140.105Z" fill="#0A0A0A"/>
<path d="M118.27 23.9496L118.031 0H141.955L142.194 23.9496H118.27ZM118.031 167.647V47.8992H141.955V167.647H118.031Z" fill="#0A0A0A"/>
<path d="M211.514 228C201.466 228 192.135 225.685 183.523 221.055C174.91 216.584 168.052 210.357 162.948 202.374C158.004 194.55 155.532 185.769 155.532 176.029C155.532 166.13 158.084 157.349 163.187 149.685C168.291 142.021 175.07 136.034 183.523 131.723C192.135 127.252 201.466 125.017 211.514 125.017C221.721 125.017 231.131 127.252 239.744 131.723C248.357 136.034 255.135 142.021 260.079 149.685C265.183 157.349 267.735 166.13 267.735 176.029C267.735 185.769 265.183 194.55 260.079 202.374C255.135 210.357 248.357 216.584 239.744 221.055C231.131 225.685 221.721 228 211.514 228ZM211.753 207.164C217.973 207.164 223.555 205.727 228.5 202.853C233.603 200.139 237.591 196.307 240.462 191.357C243.332 186.567 244.768 181.139 244.768 175.071C244.768 169.004 243.332 163.496 240.462 158.546C237.591 153.437 233.603 149.445 228.5 146.571C223.555 143.697 217.973 142.261 211.753 142.261C205.373 142.261 199.631 143.697 194.528 146.571C189.583 149.445 185.676 153.437 182.805 158.546C179.934 163.496 178.499 169.004 178.499 175.071C178.499 181.139 179.934 186.567 182.805 191.357C185.676 196.307 189.663 200.139 194.767 202.853C199.871 205.727 205.533 207.164 211.753 207.164ZM209.121 138.908C200.668 138.908 192.694 136.992 185.197 133.16C177.861 129.328 171.959 124.059 167.494 117.353C163.187 110.647 161.034 103.223 161.034 95.0798C161.034 86.7773 163.187 79.2731 167.494 72.5672C171.8 65.7017 177.621 60.3529 184.958 56.521C192.295 52.6891 200.349 50.7731 209.121 50.7731C218.372 50.7731 226.586 52.6891 233.763 56.521C241.1 60.3529 246.841 65.7017 250.988 72.5672C255.294 79.2731 257.448 86.7773 257.448 95.0798C257.448 103.223 255.294 110.647 250.988 117.353C246.682 124.059 240.781 129.328 233.284 133.16C225.948 136.992 217.893 138.908 209.121 138.908ZM209.6 120.945C214.225 120.945 218.452 119.908 222.279 117.832C226.267 115.756 229.377 112.882 231.61 109.21C233.843 105.378 234.959 101.067 234.959 96.2773C234.959 88.9328 232.487 83.0252 227.543 78.5546C222.598 74.084 216.617 71.8487 209.6 71.8487C204.815 71.8487 200.429 72.8866 196.442 74.9622C192.614 76.8782 189.583 79.7521 187.351 83.584C185.118 87.2563 184.001 91.4874 184.001 96.2773C184.001 103.462 186.473 109.37 191.418 114C196.362 118.63 202.423 120.945 209.6 120.945ZM238.787 64.4244C238.787 61.2311 239.903 58.6765 242.136 56.7605C244.369 54.6849 247.4 53.6471 251.227 53.6471H273.716V74.7227H238.787V64.4244Z" fill="#20C55C"/>
<path d="M288.214 23.9496L287.975 0H311.899L312.138 23.9496H288.214ZM287.975 167.647V47.8992H311.899V167.647H287.975Z" fill="#20C55C"/>
<path d="M386.96 54.8445V76.3992H359.208V131.962C359.208 141.542 364.232 147.29 371.649 147.29C374.759 147.29 377.63 146.332 379.783 144.895L386.482 166.21C382.175 167.887 377.391 168.845 372.127 168.845C349.639 168.845 335.284 153.277 335.284 131.483V76.3992H322.366V54.8445H335.284V20.8361L359.208 21.0756V54.8445H386.96Z" fill="#0A0A0A"/>
<path d="M387.596 107.773C387.596 72.3277 416.783 46.7017 449.798 46.7017C482.813 46.7017 512 72.3277 512 107.773C512 143.218 482.813 168.845 449.798 168.845C416.783 168.845 387.596 143.218 387.596 107.773ZM412.716 107.773C412.716 130.286 429.702 147.29 449.798 147.29C469.894 147.29 486.88 130.286 486.88 107.773C486.88 85.2605 469.894 68.2563 449.798 68.2563C429.702 68.2563 412.716 85.2605 412.716 107.773Z" fill="#0A0A0A"/>
</svg>
